# xmcd CD database file
#
# Track frame offsets:
#	150
#	9455
#	21799
#	33750
#	45955
#	60894
#	69245
#	83592
#	97134
#	112955
#	123476
#	139810
#	155674
#	175421
#	190972
#	201157
#
# Disc length: 2857 seconds
#
# Revision: 0
# Processed by: cddbd v1.5.2PL0 Copyright (c) Steve Scherf et al.
# Submitted via: CDex 1.70beta2
#
DISCID=c90b2710
DTITLE=Krouse, Roy - Cdn. - Alberta Country - Cdn.
DYEAR=1900
DGENRE=Country
TTITLE0=My Alberta
TTITLE1=Blue Canadian Rockies
TTITLE2=Calgary Stampeed
TTITLE3=Alberta Rose
TTITLE4=Old Flames
TTITLE5=Teh Rambler
TTITLE6=My First CD
TTITLE7=Teh Camel Trader
TTITLE8=Four Strong Winda
TTITLE9=Winter Time In Calgary
TTITLE10=Johnny, Drop the Reins
TTITLE11=Home On the Range
TTITLE12=World Will Keep Turning
TTITLE13=Life Is A Road
TTITLE14=Alberta Waltz
TTITLE15=Alberta Bound
EXTD=
EXTT0=
EXTT1=
EXTT2=
EXTT3=
EXTT4=
EXTT5=
EXTT6=
EXTT7=
EXTT8=
EXTT9=
EXTT10=
EXTT11=
EXTT12=
EXTT13=
EXTT14=
EXTT15=
PLAYORDER=
